<svg version="1.1" viewBox="0.0 0.0 385.1076115485564 109.22047244094489" fill="none" stroke="none" stroke-linecap="square" stroke-miterlimit="10" xmlns:xlink="http://www.w3.org/1999/xlink" xmlns="http://www.w3.org/2000/svg"><clipPath id="p.0"><path d="m0 0l385.1076 0l0 109.220474l-385.1076 0l0 -109.220474z" clip-rule="nonzero"/></clipPath><g clip-path="url(#p.0)"><path fill="#000000" fill-opacity="0.0" d="m0 0l385.1076 0l0 109.220474l-385.1076 0z" fill-rule="evenodd"/><path fill="#000000" fill-opacity="0.0" d="m0.2335958 1.1207349l397.57483 0l0 108.09449l-397.57483 0z" fill-rule="evenodd"/><path fill="#000000" d="m63.608597 37.391983q-0.078125 0.671875 -0.3125 1.171875q-0.21875 0.484375 -0.59375 0.9375q-0.53125 0.53125 -0.609375 0.796875q-0.078125 0.265625 -0.21875 0.421875q-0.390625 0.515625 -0.46875 0.671875q-0.0625 0.15625 -0.140625 0.234375q-0.296875 0.296875 -0.421875 0.53125q-0.109375 0.21875 -0.328125 0.140625q-0.15625 0.6875 -0.6875 1.484375q-0.53125 0.78125 -1.359375 0.9375q-0.53125 0 -1.03125 -0.265625q-0.484375 -0.265625 -0.703125 -0.875q-0.296875 -0.078125 -0.5 -0.140625q-0.1875 -0.078125 -0.484375 -0.234375q-0.078125 -0.375 -0.34375 -0.40625q-0.265625 -0.046875 -0.265625 -0.421875q-0.453125 -0.15625 -0.71875 -0.421875q-0.25 -0.265625 -0.640625 -0.484375q-0.296875 -0.234375 -0.671875 -0.53125q-0.375 -0.296875 -0.609375 -0.828125q-0.59375 -0.375 -1.203125 -0.75q-0.609375 -0.390625 -1.28125 -0.765625q-0.609375 -0.296875 -1.328125 -0.703125q-0.71875 -0.421875 -1.546875 -0.5q-0.140625 -0.296875 -0.484375 -0.40625q-0.34375 -0.125 -0.640625 -0.34375q-0.828125 -0.078125 -1.625 -0.234375q-0.796875 -0.15625 -1.703125 -0.296875q-0.828125 0.296875 -2.078125 0.1875q-1.25 -0.109375 -2.078125 -0.34375q-0.21875 0 -0.453125 0.15625q-0.21875 0.140625 -0.53125 0.21875q-0.59375 0 -0.859375 0.078125q-0.265625 0.078125 -0.421875 0.15625q-0.296875 0.078125 -0.609375 0.046875q-0.296875 -0.046875 -0.59375 0.03125q-0.375 0.140625 -0.6875 0.296875q-0.296875 0.15625 -0.671875 0.15625q-0.375 0.0625 -0.453125 0.40625q-0.078125 0.34375 -0.234375 0.5q-0.90625 0.140625 -1.5156269 0.59375q-0.59375 0.453125 -1.125 1.0625q-1.046875 0.53125 -1.703125 0.796875q-0.640625 0.265625 -0.9375 0.9375q-0.453125 0 -0.71875 0.1875q-0.265625 0.1875 -0.5 0.375q-0.21875 0.1875 -0.453125 0.390625q-0.21875 0.1875 -0.59375 0.1875q-0.21875 0.375 -0.375 0.671875q-0.15625 0.296875 -0.375 0.53125q-0.828125 0.453125 -1.03125 0.640625q-0.1875 0.1875 -0.5625 0.484375q-0.296875 0.3125 -0.421875 0.421875q-0.109375 0.109375 -0.328125 0.40625q-0.234375 0.453125 -0.578125 1.140625q-0.328125 0.671875 -0.78125 0.984375q-0.15625 0.75 -0.453125 1.25q-0.296875 0.484375 -0.6875 0.9375q-0.140625 0.21875 -0.078125 0.453125q0.078125 0.21875 -0.0625 0.453125q-0.078125 0.296875 -0.3125 0.609375q-0.21875 0.296875 -0.296875 0.59375q-0.078125 0.375 0 0.71875q0.078125 0.34375 0.078125 0.640625q0 0.3125 -0.125 0.5q-0.109375 0.1875 -0.109375 0.40625q-0.140625 0.90625 -0.140625 1.96875q0 1.0625 -0.078125 1.890625q0 0.296875 0.03125 0.71875q0.046875 0.40625 0.046875 0.78125q0.078125 0.390625 0.078125 0.8125q0 0.40625 0 0.625q0.0625 0.3125 0.21875 0.5q0.15625 0.1875 0.234375 0.484375q0.140625 0.296875 0.09375 0.609375q-0.03125 0.296875 0.28125 0.453125q-0.3125 0.671875 0.03125 0.90625q0.34375 0.21875 0.1875 0.90625q0.453125 0.53125 0.796875 0.875q0.34375 0.328125 0.421875 0.484375q0.453125 0.671875 0.640625 0.90625q0.1875 0.21875 0.328125 0.53125q0.3125 0.375 0.71875 0.90625q0.421875 0.515625 0.796875 0.96875q0.375 0.390625 0.5625 0.578125q0.1875 0.1875 0.5 0.5625q0.21875 0.375 0.515625 0.5q0.3125 0.109375 0.6875 0.40625q0.15625 0.15625 0.296875 0.34375q0.15625 0.1875 0.53125 0.265625q0.375 0.375 0.9375 0.5625q0.578125 0.1875 0.734375 0.796875q0.828125 0.296875 1.578125 0.71875q0.75 0.40625 1.8125 0.703125q1.0625019 0.15625 1.7031269 0.203125q0.640625 0.03125 0.9375 0.109375q0.609375 0.078125 1.015625 0.078125q0.421875 0 1.109375 -0.078125q0.828125 0.140625 1.125 0.03125q0.296875 -0.109375 0.53125 -0.109375q0.21875 0 0.4375 0.078125q0.234375 0.078125 0.46875 0.078125q0.90625 0.0625 1.765625 -0.078125q0.875 -0.15625 1.78125 0.140625q0.234375 -0.0625 0.421875 -0.171875q0.1875 -0.125 0.484375 -0.203125q0.828125 0.234375 1.546875 -0.03125q0.71875 -0.265625 1.09375 0.03125q0.375 0 0.484375 -0.140625q0.125 -0.15625 0.34375 -0.234375q0.390625 -0.078125 0.53125 0.046875q0.15625 0.109375 0.453125 0.109375q0.375 -0.078125 0.671875 -0.296875q0.3125 -0.234375 0.6875 -0.390625q0.234375 -0.140625 0.484375 -0.109375q0.265625 0.03125 0.578125 -0.03125q0.984375 -0.234375 1.546875 -0.375q0.5625 -0.15625 0.9375 -0.15625q0.765625 -0.078125 1.46875 -0.109375q0.71875 -0.046875 1.171875 -0.65625q1.296875 -0.140625 1.890625 -0.296875q0.609375 -0.15625 1.21875 -0.21875q0.296875 0.21875 0.25 0.71875q-0.03125 0.484375 0.5 0.5625q-0.078125 0.375 0 0.5625q0.078125 0.1875 0.15625 0.421875q0.140625 0.375 0.40625 0.796875q0.265625 0.40625 0.34375 1.015625q0.078125 0.21875 0 0.40625q-0.078125 0.1875 -0.078125 0.421875q0.078125 0.75 0.1875 0.90625q0.109375 0.140625 0.109375 0.296875q0.078125 0.828125 0.15625 1.21875q0.078125 0.375 0.078125 0.59375q-0.078125 0.234375 -0.234375 0.5q-0.140625 0.25 -0.140625 0.484375q-0.609375 0.15625 -1.40625 0.265625q-0.78125 0.109375 -1.171875 -0.34375q-0.59375 0.15625 -1.015625 0.390625q-0.40625 0.21875 -1.015625 0.515625q-0.609375 0.375 -1.03125 0.453125q-0.40625 0.078125 -0.78125 0.15625q-0.296875 0.140625 -0.5625 0.21875q-0.265625 0.078125 -0.640625 0.078125q-0.390625 0.296875 -0.765625 0.53125q-0.375 0.21875 -0.90625 0.375q-0.90625 0.375 -1.59375 0.34375q-0.671875 -0.046875 -1.203125 0.109375q-0.375 0.078125 -0.71875 0.1875q-0.328125 0.109375 -0.625 0.265625q-0.6875 0 -0.953125 -0.046875q-0.265625 -0.03125 -0.484375 0.046875q-0.375 0 -0.796875 -0.125q-0.421875 -0.109375 -0.796875 -0.03125q-0.296875 0 -0.609375 0.109375q-0.296875 0.125 -0.671875 0.203125q-0.21875 0 -0.453125 -0.078125q-0.21875 -0.078125 -0.53125 -0.078125q-0.140625 0 -0.40625 0.078125q-0.265625 0.078125 -0.421875 0q-1.0625 0 -2.15625 -0.15625q-1.09375 -0.15625 -2.140625 0q-0.84375 -0.375 -1.109375 -0.34375q-0.25 0.046875 -0.5625 0.046875q-0.21875 -0.375 -0.828125 -0.296875q-0.609375 0.0625 -0.984375 -0.234375q-0.21875 -0.21875 -0.453125 -0.21875q-0.21875 0 -0.375 0q-0.7500019 -0.390625 -1.0625019 -0.984375q-0.140625 0.140625 -0.453125 0.140625q-0.296875 0 -0.515625 0q-0.390625 -0.21875 -0.625 -0.4375q-0.21875 -0.234375 -0.59375 -0.390625q-0.671875 -0.078125 -1.28125 -0.1875q-0.609375 -0.109375 -0.90625 -0.796875q-0.296875 -0.0625 -0.53125 -0.0625q-0.21875 0 -0.453125 -0.078125q-0.671875 -0.3125 -0.9375 -0.34375q-0.265625 -0.03125 -0.5 -0.1875q-0.375 -0.296875 -0.5625 -0.328125q-0.1875 -0.046875 -0.265625 -0.046875q-1.28125 -1.0625 -2.453125 -1.8125q-1.171875 -0.765625 -2.15625 -1.4375q-0.296875 -0.53125 -0.53125 -0.984375q-0.21875 -0.453125 -0.828125 -0.609375q0.078125 -0.296875 -0.1875 -0.375q-0.265625 -0.078125 -0.1875 -0.453125q-0.296875 -0.21875 -0.53125 -0.453125q-0.0625 -0.078125 -0.0625 -0.140625q-0.3125 -0.390625 -0.65624905 -0.609375q-0.328125 -0.234375 -0.40625 -0.453125q-0.15625 -0.375 -0.453125 -0.75q-0.296875 -0.390625 -0.609375 -0.765625q-1.046875 -1.28125 -1.28125 -2.265625q-0.375 -0.984375 -0.6875 -1.234375q-0.296875 -0.265625 -0.21875 -0.796875q-0.15625 -0.234375 -0.3125 -0.421875q-0.140625 -0.1875 -0.296875 -0.484375q0.078125 -0.6875 -0.109375 -1.0625q-0.1875 -0.375 -0.484375 -0.75q0.078125 -0.375 0.140625 -0.5625q0.078125 -0.203125 0 -0.65625q-0.140625 -0.375 -0.375 -0.78125q-0.21875 -0.421875 -0.375 -0.953125q-0.15625 -0.375 -0.125 -0.5625q0.046875 -0.1875 -0.09375 -0.796875q-0.078125 -0.375 -0.234375 -1.09375q-0.15625 -0.71875 -0.078125 -1.25q0.078125 -0.375 0.21875 -0.671875q0.15625 -0.296875 0.3125 -0.609375q-0.21875 -1.28125 0.375 -2.109375q-0.375 -1.8125 0.3125 -3.625q0.21875 -0.53125 0.25 -1.0625q0.046875 -0.53125 0.203125 -0.90625q0 -0.140625 0.1875 -0.4375q0.1875 -0.3125 0.03125 -0.84375q0.15625 -0.21875 0.265625 -0.40625q0.109375 -0.203125 0.265625 -0.421875q0.15625 -0.90625 0.5625 -1.765625q0.421875 -0.875 0.953125 -1.703125q0.75 -0.984375 1.125 -1.84375q0.375 -0.875 0.828125 -1.484375q0.37499905 -0.453125 0.82812405 -0.828125q0.453125 -0.375 0.765625 -0.984375q0.453125 0.078125 0.59375 -0.265625q0.15625 -0.34375 0.53125 -0.34375q0.078125 -0.296875 0.53125 -0.75q0.609375 -0.75 0.984375 -1.09375q0.375 -0.34375 0.53125 -0.71875q0.453125 0 0.640625 -0.296875q0.1875 -0.3125 0.40625 -0.609375q0.53125 -0.15625 0.75 -0.484375q0.234375 -0.34375 0.84375 -0.421875q0.15625 -0.453125 0.71875 -0.484375q0.5625 -0.046875 0.71875 -0.578125q0.59375 -0.0625 1.203125 -0.40625q0.609375 -0.34375 1.203125 -0.5625q0.3125 -0.15625 0.609375 -0.265625q0.296875 -0.125 0.609375 -0.265625q0.671875 -0.15625 0.828125 -0.265625q0.15625 -0.109375 0.296875 -0.1875q0.3125 -0.078125 0.6875 -0.078125q0.375 0 0.75 -0.078125q0.453125 -0.15625 0.90625 -0.375q0.4531269 -0.234375 0.9062519 -0.375q0.234375 -0.078125 0.5625 -0.109375q0.34375 -0.046875 0.640625 -0.125q0.3125 -0.078125 0.640625 -0.1875q0.34375 -0.109375 0.796875 0.046875q0.234375 0 0.5 0q0.265625 0 0.71875 -0.15625q0.828125 -0.15625 2.109375 -0.375q1.28125 -0.234375 1.96875 0.375q0.453125 -0.234375 0.90625 -0.421875q0.453125 -0.1875 1.046875 0.1875q0.234375 0 0.5 -0.109375q0.265625 -0.109375 0.5625 -0.1875q0.21875 0 0.40625 0.125q0.203125 0.109375 0.5 0.109375q0.375 0.0625 0.640625 0.03125q0.265625 -0.03125 0.640625 0.03125q0.53125 0.078125 0.984375 0.234375q0.453125 0.15625 0.984375 0.296875q0.296875 0.078125 0.5625 0.046875q0.265625 -0.046875 0.5625 0.109375q0.234375 0 0.484375 0.109375q0.265625 0.109375 0.421875 0.109375q0.234375 0 0.453125 -0.0625q0.234375 -0.078125 0.375 0q0.6875 0.140625 1.28125 0.484375q0.609375 0.34375 1.359375 0.265625q0.84375 0.75 1.96875 1.203125q1.140625 0.453125 1.734375 1.515625q0.234375 0.078125 0.453125 0.1875q0.234375 0.109375 0.453125 0.1875q0.53125 0.609375 1.09375 1.21875q0.578125 0.59375 1.40625 0.890625q0.140625 0.390625 0.484375 0.421875q0.34375 0.03125 0.71875 0.1875q0.53125 0.453125 0.859375 0.578125q0.34375 0.109375 0.5 0.171875q0.15625 0.390625 0.296875 0.625q0.15625 0.21875 0.3125 0.515625zm36.17595 -6.796875q0 0.609375 -0.15625 1.09375q-0.15625 0.484375 -0.15625 1.171875q-0.078125 0.21875 -0.046875 0.640625q0.046875 0.421875 -0.03125 0.796875q0 0.375 -0.078125 0.71875q-0.0625 0.328125 0.015625 0.5625q0 0.53125 0.140625 0.90625q0.15625 0.375 0 0.828125q0 0.375 -0.34375 0.5q-0.328125 0.109375 -0.703125 0.25q-0.390625 0.15625 -0.921875 0.28125q-0.515625 0.109375 -0.75 -0.125q-0.296875 -0.453125 -0.75 -0.53125q-0.609375 0.15625 -1.109375 0.125q-0.484375 -0.046875 -1.15625 -0.046875q-0.53125 -0.078125 -1.09375 0.046875q-0.5625 0.109375 -1.171875 0.109375q-0.234375 0 -0.421875 -0.03125q-0.1875 -0.046875 -0.40625 -0.046875q-0.6875 -0.078125 -1.375 0.1875q-0.671875 0.265625 -1.421875 0.109375q-0.609375 -0.078125 -1.03125 0.078125q-0.40625 0.15625 -0.78125 0.234375q-0.375 0.0625 -0.609375 -0.046875q-0.21875 -0.109375 -0.59375 -0.109375q-0.765625 0 -1.453125 0.1875q-0.671875 0.1875 -1.65625 0.109375q-0.59375 -0.140625 -0.828125 -0.03125q-0.21875 0.109375 -0.375 0.109375q-0.75 0.078125 -1.140625 0.078125q-0.375 0 -0.671875 0.15625q0 0.453125 0.109375 1.0625q0.125 0.59375 -0.1875 1.046875q0.6875 1.578125 0.71875 3.390625q0.046875 1.8125 0.34375 3.78125q0.21875 0.078125 0.59375 0.234375q0.390625 0.140625 0.6875 0.140625q0.375 0 0.859375 -0.1875q0.5 -0.1875 1.109375 -0.265625q0.59375 -0.15625 0.8125 -0.078125q0.234375 0.078125 0.390625 0.078125q0.375 0 0.71875 -0.140625q0.34375 -0.15625 0.71875 -0.15625q2.1875 0.140625 4.59375 0.078125q2.421875 -0.078125 4.09375 0.21875q0.375 0.078125 0.671875 0.1875q0.3125 0.109375 0.6875 0.1875q0.53125 0.15625 0.984375 0.078125q0.453125 -0.078125 0.828125 0.234375q0.828125 0.96875 0.296875 2.640625q-0.15625 0.375 -0.046875 0.984375q0.125 0.59375 0.046875 1.28125q-0.078125 0.75 -0.234375 1.390625q-0.140625 0.640625 -0.21875 1.25q0 0.375 0.078125 0.71875q0.078125 0.34375 0 0.5625q-0.078125 0.375 -0.390625 0.875q-0.296875 0.484375 -0.4375 0.5625q-0.15625 0.078125 -0.5 0.15625q-0.328125 0.0625 -0.484375 0.0625q-0.609375 0.078125 -1.0625 -0.0625q-0.453125 -0.15625 -0.984375 -0.15625q-0.75 0.078125 -1.171875 0q-0.40625 -0.078125 -0.9375 -0.078125q-0.375 0 -0.6875 0.125q-0.296875 0.109375 -0.671875 0.109375q-0.296875 0 -0.5625 -0.078125q-0.265625 -0.078125 -0.640625 -0.078125q-0.609375 0 -1.25 0.046875q-0.640625 0.03125 -1.328125 0.03125q-0.671875 -0.453125 -0.796875 -0.21875q-0.109375 0.21875 -0.484375 0.140625q-0.21875 0.15625 -0.40625 0q-0.1875 -0.15625 -0.421875 -0.078125q-0.21875 0 -0.421875 0.125q-0.1875 0.109375 -0.40625 0.109375q-0.375 0 -0.71875 -0.109375q-0.34375 -0.125 -0.71875 -0.046875q-0.53125 0 -1.140625 0q-0.59375 0 -1.421875 -0.078125q-0.3125 0.828125 -0.3125 1.8125q0 0.984375 0.390625 1.8125q0.0625 0.375 -0.09375 0.53125q-0.140625 0.15625 -0.296875 0.375q0.15625 0.234375 0.234375 0.390625q0.078125 0.140625 0.078125 0.4375q-0.15625 0.609375 -0.078125 0.84375q0.078125 0.21875 0.078125 0.375q-0.15625 0.296875 -0.265625 0.53125q-0.109375 0.21875 -0.109375 0.4375q0 0.84375 0.453125 1.296875q-0.390625 0.296875 -0.234375 0.609375q0.15625 0.296875 0 0.59375q-0.078125 0.671875 -0.1875 1.328125q-0.109375 0.640625 -0.109375 1.234375q0 0.234375 0.0625 0.5q0.078125 0.265625 0.015625 0.5625q0 0.375 -0.15625 0.609375q-0.15625 0.21875 -0.234375 0.59375q-0.140625 0.453125 -0.109375 0.984375q0.046875 0.53125 0.046875 1.0625q0.0625 0.453125 -0.015625 0.875q-0.0625 0.40625 0.015625 0.78125q0.0625 0.375 -0.171875 0.5q-0.21875 0.109375 -0.359375 0.328125q0.453125 1.140625 0.453125 1.4375q0 0.296875 -0.078125 0.5q-0.078125 0.1875 -0.15625 0.484375q-0.140625 0.53125 0 0.984375q0.078125 0.59375 0.421875 1.046875q0.34375 0.453125 0.34375 0.84375q0 0.375 -0.421875 0.859375q-0.421875 0.484375 -0.796875 0.5625q-0.296875 0.078125 -0.53125 0q-0.21875 -0.078125 -0.59375 -0.21875q-0.375 -0.15625 -0.765625 -0.421875q-0.375 -0.265625 -0.96875 -0.40625q-0.609375 -0.15625 -0.953125 -0.15625q-0.34375 0 -0.796875 -0.078125q-0.75 -0.21875 -1.015625 -0.171875q-0.265625 0.03125 -0.484375 0.03125q-0.375 0 -0.796875 -0.15625q-0.421875 -0.15625 -0.875 0q-0.21875 -0.296875 -0.640625 -0.671875q-0.40625 -0.390625 -0.5625 -0.765625q0.15625 -0.671875 0.375 -0.890625q0.234375 -0.234375 0.609375 -0.46875q0 -0.375 -0.265625 -0.484375q-0.265625 -0.125 -0.265625 -0.5q0.15625 -0.828125 -0.03125 -1.578125q-0.1875 -0.765625 -0.125 -1.515625q0 -0.375 0.078125 -0.59375q0.078125 -0.234375 0.078125 -0.46875q-0.15625 -0.75 -0.15625 -1.125q0.078125 -0.296875 0.15625 -0.5625q0.078125 -0.265625 0.15625 -0.640625q-0.078125 -1.0625 0 -1.59375q0.078125 -0.53125 0.140625 -0.90625q0.15625 -0.375 0.109375 -0.75q-0.03125 -0.375 0.28125 -0.6875q-0.453125 -0.59375 -0.203125 -1.125q0.265625 -0.53125 0.34375 -1.140625q-0.140625 -0.59375 -0.078125 -0.75q0.078125 -0.15625 0.078125 -0.296875q0.234375 -0.390625 0.046875 -0.953125q-0.1875 -0.5625 -0.1875 -0.9375q-0.078125 -0.609375 0.03125 -1.25q0.109375 -0.640625 0.265625 -1.25q-0.234375 -0.375 -0.234375 -1.046875q0 -0.6875 0 -1.296875q0.078125 -0.671875 0 -0.96875q-0.0625 -0.3125 -0.0625 -0.53125q0 -0.3125 0.140625 -0.640625q0.15625 -0.34375 0.234375 -0.640625q0 -0.078125 -0.046875 -0.265625q-0.03125 -0.1875 -0.03125 -0.34375l0 -0.453125q0 -0.75 -0.125 -1.09375q-0.109375 -0.34375 -0.25 -0.71875q-0.15625 -0.75 -0.3125 -1.171875q-0.140625 -0.421875 -0.140625 -0.640625q0.078125 -0.375 0.03125 -0.5625q-0.03125 -0.1875 -0.03125 -0.34375q0 -0.375 0.1875 -0.640625q0.1875 -0.265625 0.265625 -0.640625q0.140625 -0.609375 0.109375 -1.203125q-0.03125 -0.609375 -0.03125 -1.296875q0.0625 -0.59375 0.03125 -0.75q-0.03125 -0.15625 -0.03125 -0.296875q0.0625 -0.765625 0.09375 -1.359375q0.046875 -0.609375 0.046875 -1.21875q0.078125 -0.59375 -0.078125 -1.234375q-0.140625 -0.640625 -0.0625 -1.484375q0 -0.140625 0 -0.671875q0 -0.53125 0.140625 -0.828125q-0.140625 -0.15625 -0.1875 -0.421875q-0.03125 -0.265625 -0.1875 -0.40625q0.15625 -0.3125 0.15625 -0.6875q0 -0.375 -0.046875 -0.71875q-0.03125 -0.34375 0 -0.640625q0.046875 -0.296875 0.34375 -0.453125q-0.296875 -0.53125 -0.375 -1.125q-0.078125 -0.609375 -0.125 -1.28125q-0.03125 -0.6875 -0.109375 -1.359375q-0.0625 -0.6875 -0.375 -1.296875q-0.21875 -0.453125 -0.5625 -0.859375q-0.34375 -0.421875 -0.34375 -0.875q0 -0.375 0.21875 -0.640625q0.234375 -0.265625 0.3125 -0.640625q0.296875 0.15625 0.671875 -0.03125q0.390625 -0.203125 0.84375 -0.046875q0.984375 0.296875 1.578125 0.15625q0.609375 -0.15625 0.828125 0.375q0.390625 0 0.5 -0.21875q0.109375 -0.234375 0.484375 -0.234375q1.0625 -0.15625 2.15625 -0.078125q1.09375 0.078125 2.15625 -0.078125q0.296875 0 0.5625 -0.0625q0.265625 -0.078125 0.5625 -0.15625q1.359375 -0.078125 2.71875 0.03125q1.359375 0.109375 2.640625 -0.03125q0.3125 0 0.578125 -0.078125q0.265625 -0.078125 0.5625 -0.15625q0.828125 -0.078125 1.578125 -0.03125q0.765625 0.03125 1.515625 -0.046875q0.53125 0 0.984375 0q0.453125 0 0.90625 0.078125q1.0625 -0.296875 2.0 -0.1875q0.9375 0.109375 1.546875 0.109375q1.28125 0 2.484375 0q1.21875 0 2.5 0.390625q0.296875 0.671875 0.234375 1.5q0.140625 0.375 0.25 0.765625q0.125 0.375 0.203125 0.75zm55.192825 51.5q-0.15625 0.453125 -0.6875 0.53125q-0.515625 0.078125 -0.671875 0.53125q-0.75 -0.15625 -0.984375 -0.453125q-0.375 0.375 -0.609375 0.421875q-0.21875 0.03125 -0.375 0.109375q-0.59375 0.21875 -0.90625 0.59375q-0.21875 -0.078125 -0.453125 -0.21875q-0.21875 -0.15625 -0.515625 -0.234375q-0.84375 0.078125 -1.21875 0.15625q-0.375 0.078125 -0.671875 0.078125q-0.609375 0 -1.0625 -0.109375q-0.453125 -0.125 -1.0625 0.03125q-0.296875 0.15625 -0.671875 0.078125q-0.375 -0.078125 -0.6875 0.296875q-0.375 0.078125 -0.453125 -0.0625q-0.0625 -0.15625 -0.453125 -0.09375q-0.375 0.234375 -0.875 0.34375q-0.484375 0.109375 -1.0 0.265625q-0.453125 -0.15625 -0.65625 -0.5625q-0.1875 -0.421875 -0.5625 -0.71875q0.078125 -0.375 0.03125 -0.75q-0.03125 -0.390625 0.125 -0.53125q-0.21875 -0.234375 -0.21875 -0.5q0 -0.265625 -0.078125 -0.640625q-0.3125 -0.59375 -0.375 -0.984375q-0.15625 -0.75 -0.390625 -1.203125q-0.21875 -0.453125 -0.0625 -0.828125q-0.390625 -0.375 -0.46875 -0.859375q-0.0625 -0.5 -0.296875 -1.25q-0.21875 -0.390625 -0.1875 -0.578125q0.046875 -0.1875 -0.03125 -0.328125q-0.375 -0.84375 -0.375 -1.140625q0 -0.296875 -0.078125 -0.609375q-0.3125 -0.671875 -0.421875 -1.125q-0.109375 -0.453125 -0.265625 -0.828125q-0.140625 -0.234375 -0.296875 -0.421875q-0.15625 -0.1875 -0.296875 -0.484375q-0.15625 -0.3125 -0.15625 -0.640625q0 -0.34375 -0.15625 -0.640625q-0.140625 -0.3125 -0.265625 -0.53125q-0.109375 -0.234375 -0.1875 -0.453125q-0.140625 -0.453125 -0.1875 -0.9375q-0.03125 -0.5 -0.34375 -0.875q-0.453125 -0.15625 -0.90625 0q-0.453125 0.140625 -0.828125 0.21875q-0.21875 0 -0.484375 -0.03125q-0.265625 -0.046875 -0.5 0.03125q-0.515625 0.078125 -0.9375 0.203125q-0.421875 0.109375 -0.875 -0.046875q-0.296875 0 -0.484375 0.078125q-0.1875 0.078125 -0.5625 0.078125q-0.234375 -0.15625 -0.796875 -0.109375q-0.5625 0.03125 -1.015625 0.03125q-0.53125 0.078125 -1.0625 0.15625q-0.53125 0.0625 -0.828125 -0.078125q-0.828125 -0.078125 -1.140625 -0.15625q-0.296875 -0.078125 -0.515625 -0.078125q-0.609375 -0.078125 -1.140625 0q-0.53125 0.078125 -1.125 -0.078125q-0.234375 0.15625 -0.546875 0.234375q-0.296875 0.078125 -0.4375 0.296875q-0.828125 -0.15625 -1.40625 0q-0.5625 0.15625 -1.390625 0.078125q-0.609375 0.453125 -0.609375 1.0625q0 0.59375 -0.140625 1.203125q-0.15625 0.609375 -0.46875 1.09375q-0.296875 0.484375 -0.59375 1.015625q-0.15625 0.375 -0.3125 0.765625q-0.140625 0.375 -0.375 0.75q-0.140625 0.375 -0.21875 0.53125q-0.078125 0.140625 -0.15625 0.296875q-0.078125 0.15625 -0.140625 0.15625q-0.078125 0.59375 -0.234375 0.796875q-0.15625 0.1875 -0.15625 0.328125q-0.140625 0.375 -0.109375 0.6875q0.046875 0.296875 -0.03125 0.671875q-0.15625 0.53125 -0.421875 0.90625q-0.265625 0.375 -0.265625 0.984375q-0.59375 0.453125 -0.90625 1.25q-0.296875 0.796875 -0.90625 1.3125q-0.078125 0.6875 -0.3125 1.296875q-0.21875 0.59375 -0.484375 1.171875q-0.25 0.5625 -0.40625 1.203125q-0.15625 0.640625 -0.15625 1.46875q-0.21875 0.15625 -0.75 0.40625q-0.53125 0.265625 -0.90625 0.046875q-0.6875 -0.375 -1.171875 -0.53125q-0.484375 -0.15625 -0.875 -0.375q-0.140625 -0.078125 -0.828125 -0.125q-0.671875 -0.03125 -1.046875 -0.03125q-0.53125 0.078125 -0.765625 0q-0.21875 -0.078125 -0.453125 -0.140625q-0.296875 0 -0.5625 0.03125q-0.265625 0.03125 -0.640625 -0.03125q-0.90625 -0.15625 -1.734375 -0.578125q-0.828125 -0.40625 -1.59375 -0.640625q0 -0.375 0.078125 -0.640625q0.078125 -0.265625 0.234375 -0.640625q0.140625 -0.375 0.375 -0.484375q0.21875 -0.109375 0.15625 -0.421875q0.21875 -0.59375 0.484375 -1.203125q0.265625 -0.609375 0.5625 -1.203125q0.296875 -0.765625 0.453125 -0.953125q0.15625 -0.1875 0.296875 -0.34375q0.3125 -0.75 0.421875 -1.015625q0.109375 -0.265625 0.1875 -0.40625q0.15625 -0.390625 0.21875 -0.609375q0.078125 -0.234375 0.390625 -0.609375l0.671875 -0.90625q0.234375 -0.75 0.453125 -1.09375q0.234375 -0.34375 0.375 -0.5625q0.390625 -0.453125 0.609375 -0.9375q0.234375 -0.5 0.53125 -1.109375q0.296875 -0.375 0.515625 -0.703125q0.234375 -0.34375 0.390625 -0.796875q0.15625 -0.53125 0.21875 -0.640625q0.078125 -0.125 0.15625 -0.265625q0.078125 -0.453125 0.109375 -0.5625q0.046875 -0.125 0.125 -0.265625q0.375 -0.609375 0.640625 -1.359375q0.265625 -0.765625 0.640625 -1.359375q0.140625 -0.390625 0.484375 -0.6875q0.34375 -0.296875 0.34375 -0.828125q0.375 -0.234375 0.515625 -0.640625q0.15625 -0.421875 0.390625 -0.796875q0.15625 -0.375 0.40625 -0.671875q0.265625 -0.3125 0.5 -0.6875q0.15625 -0.375 0.34375 -0.78125q0.1875 -0.421875 0.40625 -0.796875q0.15625 -0.390625 0.375 -0.71875q0.234375 -0.34375 0.6875 -0.5q-0.15625 -0.375 0.03125 -0.78125q0.1875 -0.421875 0.34375 -0.796875q0.15625 -0.3125 0.375 -0.5625q0.234375 -0.265625 0.375 -0.578125l0.390625 -0.75q0.296875 -0.75 0.484375 -0.9375q0.1875 -0.203125 0.265625 -0.34375q0.15625 -0.234375 0.109375 -0.453125q-0.03125 -0.234375 0.046875 -0.375q0.453125 -0.3125 0.671875 -0.765625q0.234375 -0.453125 0.53125 -0.984375q0.21875 -0.375 0.4375 -0.9375q0.234375 -0.5625 0.625 -1.015625q-0.078125 -0.375 0.0625 -0.640625q0.15625 -0.265625 0.3125 -0.640625q0.140625 -0.234375 0.25 -0.5q0.125 -0.265625 0.28125 -0.484375q0.515625 -0.6875 0.625 -1.203125q0.125 -0.53125 0.28125 -0.984375q0.140625 -0.375 0.328125 -0.59375q0.1875 -0.234375 0.34375 -0.546875q0.15625 -0.296875 0.21875 -0.59375q0.078125 -0.3125 0.390625 -0.453125q0.078125 -0.765625 0.328125 -1.28125q0.265625 -0.53125 0.5 -1.140625q0.21875 -0.53125 0.828125 -1.0625q0.078125 -0.453125 0.078125 -0.90625q0 -0.453125 0.15625 -0.828125q0.140625 -0.375 0.359375 -0.59375q0.234375 -0.234375 0.390625 -0.53125q0.296875 -0.984375 0.484375 -1.625q0.1875 -0.640625 0.421875 -1.25q0.21875 -0.53125 0.4375 -1.25q0.234375 -0.71875 0.46875 -1.3125q0.21875 -0.453125 0.40625 -0.875q0.203125 -0.421875 0.34375 -0.875q0.765625 -0.375 1.140625 -1.046875q0.375 -0.6875 0.59375 -1.515625q0.453125 -0.15625 0.640625 -0.109375q0.203125 0.03125 0.421875 0.03125q0.75 0.15625 0.90625 0.53125q0.15625 0.375 0.453125 0.6875q0.375 0.453125 0.5625 0.796875q0.1875 0.328125 0.34375 0.625q0.296875 0.3125 0.640625 0.84375q0.34375 0.515625 0.5 1.046875q0.140625 0.3125 0.296875 0.6875q0.15625 0.375 0.296875 0.75q0.234375 0.375 0.421875 0.828125q0.1875 0.453125 0.40625 0.984375q0.234375 0.609375 0.5 1.40625q0.265625 0.78125 0.484375 1.546875q0.15625 0.375 0.1875 0.671875q0.046875 0.296875 0.1875 0.609375q0.15625 0.375 0.265625 0.609375q0.125 0.21875 0.265625 0.4375q0.3125 0.6875 0.640625 1.484375q0.34375 0.78125 0.71875 1.625q0.15625 0.21875 0.265625 0.453125q0.109375 0.21875 0.265625 0.515625q0.15625 0.15625 0.265625 0.390625q0.109375 0.21875 0.265625 0.453125q0.15625 0.21875 0.265625 0.53125q0.109375 0.296875 0.34375 0.515625q0.21875 0.453125 0.40625 0.796875q0.1875 0.34375 0.34375 0.9375q0.15625 0.453125 0.34375 1.140625q0.1875 0.671875 0.265625 1.28125q0.375 0.671875 0.703125 1.546875q0.34375 0.875 0.640625 1.703125q0.234375 0.21875 0.421875 0.40625q0.1875 0.1875 0.421875 0.5q0.140625 0.375 0.296875 0.53125q0.15625 0.140625 0.21875 0.296875q0.3125 0.671875 0.5 1.328125q0.1875 0.640625 0.34375 1.234375q0.140625 0.375 0.359375 0.765625q0.234375 0.375 0.234375 0.90625q0.453125 0.59375 0.671875 1.09375q0.234375 0.484375 0.390625 0.859375q0.375 0.609375 0.515625 0.875q0.15625 0.265625 0.3125 0.5625q0.53125 0.6875 0.828125 1.4375q0.15625 0.296875 0.1875 0.640625q0.046875 0.34375 0.1875 0.5625q0.15625 0.53125 0.375 1.03125q0.234375 0.484375 0.390625 1.09375q0.375 0.296875 0.5625 0.671875q0.1875 0.375 0.34375 0.75q0.140625 0.234375 0.296875 0.65625q0.15625 0.40625 0.296875 0.78125q0.234375 0.609375 0.609375 1.21875q0.375 0.59375 0.53125 1.203125q0.15625 0.375 0.34375 0.75q0.1875 0.375 0.328125 0.765625q0.15625 0.375 0.109375 0.640625q-0.03125 0.265625 0.125 0.484375q0.15625 0.375 0.453125 0.984375q0.453125 1.515625 1.0625 3.171875q0.375 0.984375 0.859375 1.96875q0.5 0.96875 0.71875 2.03125zm-20.3125 -22.734375q0.15625 -0.296875 0.078125 -0.59375q-0.078125 -0.3125 -0.15625 -0.6875q-0.078125 -0.296875 -0.109375 -0.671875q-0.03125 -0.390625 -0.1875 -0.6875q-0.15625 -0.296875 -0.34375 -0.484375q-0.1875 -0.1875 -0.265625 -0.421875q-0.140625 -1.0625 -0.265625 -1.84375q-0.109375 -0.796875 -0.265625 -1.625q-0.375 -0.3125 -0.59375 -0.765625q-0.453125 -0.59375 -0.578125 -1.0q-0.109375 -0.421875 -0.1875 -0.8125q-0.140625 -0.59375 -0.296875 -1.0q-0.15625 -0.421875 -0.296875 -0.8125q-0.15625 -0.59375 -0.234375 -1.046875q-0.078125 -0.453125 -0.21875 -0.90625q-0.078125 -0.234375 -0.15625 -0.421875q-0.078125 -0.1875 -0.15625 -0.40625q-0.140625 -0.453125 -0.296875 -0.984375q-0.15625 -0.53125 -0.53125 -0.6875q-0.75 0.3125 -0.828125 0.90625q-0.21875 0.84375 -0.53125 1.140625q-0.296875 0.296875 -0.375 0.453125q-0.15625 0.828125 -0.265625 1.171875q-0.109375 0.328125 -0.265625 0.71875q-0.140625 0.375 -0.265625 0.671875q-0.109375 0.296875 -0.265625 0.609375q-0.140625 0.21875 -0.265625 0.453125q-0.109375 0.21875 -0.1875 0.375q-0.671875 1.28125 -1.203125 2.234375q-0.53125 0.9375 -0.90625 1.921875q-0.15625 0.375 -0.234375 0.71875q-0.0625 0.328125 -0.21875 0.71875q-0.15625 0.296875 -0.390625 0.53125q-0.21875 0.21875 -0.359375 0.59375q-0.078125 0.234375 -0.046875 0.421875q0.046875 0.1875 -0.03125 0.484375q-0.53125 0.828125 -0.640625 1.328125q-0.109375 0.484375 -0.265625 0.859375q0.828125 0.375 1.6875 0.34375q0.875 -0.03125 1.703125 -0.03125q1.4375 -0.078125 2.953125 -0.1875q1.515625 -0.125 2.5625 -0.34375q0.90625 -0.15625 1.890625 0q0.984375 0.140625 1.8125 -0.234375zm89.03331 -23.703125q0.15625 0.59375 -0.265625 1.046875q-0.40625 0.453125 -0.5625 1.21875q-0.15625 0.140625 -0.390625 0.265625q-0.21875 0.109375 -0.359375 0.40625q-0.3125 0.609375 -0.6875 0.6875q-0.21875 0.59375 -0.5625 0.984375q-0.34375 0.375 -0.640625 0.90625q0 0.375 -0.265625 0.421875q-0.265625 0.03125 -0.421875 0.171875q-0.21875 1.4375 -1.359375 2.1875q-0.828125 -0.0625 -1.65625 -0.375q-0.234375 -0.21875 -0.203125 -0.59375q0.046875 -0.390625 -0.09375 -0.6875q-0.15625 -0.296875 -0.3125 -0.515625q-0.140625 -0.234375 -0.296875 -0.546875q-0.15625 -0.21875 -0.390625 -0.4375q-0.21875 -0.234375 -0.359375 -0.390625q-0.234375 -0.453125 -0.46875 -0.5625q-0.21875 -0.109375 -0.296875 -0.1875q-0.140625 -0.234375 -0.296875 -0.453125q-0.15625 -0.234375 -0.296875 -0.453125q-0.15625 -0.15625 -0.34375 -0.375q-0.1875 -0.234375 -0.34375 -0.375q-0.375 -0.234375 -0.53125 -0.265625q-0.140625 -0.046875 -0.21875 -0.1875q-1.0625 -0.453125 -1.890625 -0.453125q-0.828125 0 -1.4375 -0.078125q-0.21875 0 -0.453125 -0.078125q-0.21875 -0.078125 -0.53125 -0.078125q-0.140625 0 -0.375 0.078125q-0.21875 0.078125 -0.453125 0.15625q-0.21875 0.0625 -0.453125 0.03125q-0.21875 -0.03125 -0.375 0.03125q-0.296875 0.15625 -0.53125 0.421875q-0.21875 0.265625 -0.609375 0.265625q-0.375 0.75 -0.796875 1.09375q-0.40625 0.34375 -0.5625 0.71875q-0.0625 0.21875 -0.21875 0.984375q-0.15625 0.59375 -0.390625 1.4375q-0.21875 0.828125 -0.140625 1.5q0 0.90625 0.296875 1.546875q0.3125 0.640625 0.453125 1.40625q0.3125 0.140625 0.421875 0.375q0.109375 0.21875 0.265625 0.53125q0.21875 0.21875 0.40625 0.453125q0.203125 0.21875 0.578125 0.296875q0 0.375 0.140625 0.53125q0.15625 0.140625 0.15625 0.453125q0.75 0.453125 1.359375 1.125q0.296875 0.53125 0.5625 0.65625q0.265625 0.109375 0.125 0.40625q0.515625 0.15625 0.734375 0.390625q0.234375 0.21875 0.390625 0.359375q0.828125 0.453125 1.203125 0.953125q0.390625 0.484375 0.984375 0.78125q0.078125 0.390625 0.296875 0.625q0.234375 0.21875 0.3125 0.59375q0.375 -0.078125 0.515625 0.15625q0.15625 0.21875 0.609375 0.140625q0.15625 0.375 0.421875 0.53125q0.265625 0.15625 0.5625 0.296875q0.828125 0.6875 1.359375 1.0625q0.53125 0.375 0.984375 0.828125q0.15625 0.234375 0.296875 0.34375q0.15625 0.109375 0.3125 0.265625q1.046875 0.984375 1.65625 1.703125q0.609375 0.703125 1.203125 1.234375q0.3125 1.140625 1.0625 2.125q0.078125 0.75 0.6875 1.359375q-0.078125 0.75 0.140625 1.25q0.234375 0.484375 0.453125 0.9375q0.15625 0.375 0.265625 0.90625q0.109375 0.53125 0.046875 0.90625q0.0625 0.375 -0.015625 0.5625q-0.0625 0.1875 0.015625 0.421875q0 0.375 0.109375 0.75q0.109375 0.375 0.1875 0.828125q-0.15625 0.75 -0.078125 1.015625q0.078125 0.265625 0.078125 0.5q-0.078125 0.453125 -0.234375 0.90625q-0.140625 0.453125 0 0.90625q-0.453125 0.453125 -0.21875 0.984375q-0.078125 0.375 -0.234375 0.53125q-0.140625 0.140625 -0.296875 0.375q0.078125 0.671875 -0.15625 1.203125q-0.140625 0.375 -0.40625 0.75q-0.265625 0.375 -0.640625 0.453125q0.078125 0.53125 -0.125 0.65625q-0.1875 0.109375 -0.25 0.25q-0.234375 0.609375 -0.734375 1.03125q-0.484375 0.40625 -0.78125 0.78125q-0.296875 0.375 -0.6875 0.765625q-0.375 0.375 -0.75 0.75q-0.21875 0.21875 -0.484375 0.53125q-0.265625 0.296875 -0.421875 0.453125q-0.15625 0.140625 -0.5 0.21875q-0.328125 0.078125 -0.703125 0.234375q-0.828125 0.375 -1.328125 0.515625q-0.484375 0.15625 -1.09375 0.234375q-0.75 0.078125 -0.9375 0.1875q-0.1875 0.109375 -0.34375 0.109375q-0.375 0 -0.640625 -0.109375q-0.265625 -0.109375 -0.5625 -0.1875q-0.609375 0.296875 -1.21875 0.21875q-0.59375 -0.0625 -1.4375 -0.21875q-0.375 -0.078125 -1.015625 -0.125q-0.640625 -0.03125 -1.015625 -0.25q-0.453125 0.140625 -0.984375 0.375q-0.75 -0.234375 -1.515625 -0.3125q-0.75 -0.0625 -1.578125 -0.296875q-0.296875 -0.078125 -0.609375 -0.234375q-0.296875 -0.140625 -0.59375 -0.296875q-0.390625 -0.140625 -0.765625 -0.109375q-0.375 0.046875 -0.671875 -0.109375q-0.234375 -0.15625 -0.46875 -0.34375q-0.21875 -0.1875 -0.4375 -0.328125q-0.53125 -0.390625 -0.875 -0.53125q-0.34375 -0.15625 -0.484375 -0.53125q-0.765625 0.15625 -1.0625 -0.296875q-0.296875 -0.453125 -0.90625 -0.453125q-0.15625 -0.15625 -0.125 -0.421875q0.046875 -0.265625 -0.09375 -0.421875q-0.390625 -0.140625 -0.5 0.015625q-0.109375 0.140625 -0.40625 0.0625q-0.15625 -0.296875 -0.28125 -0.4375q-0.109375 -0.15625 -0.25 -0.46875q-0.15625 -0.140625 -0.53125 -0.296875q-0.375 -0.15625 -0.6875 -0.53125q-0.21875 -0.375 -0.375 -0.484375q-0.140625 -0.125 -0.21875 -0.1875q-0.453125 -0.6875 -0.71875 -1.328125q-0.265625 -0.640625 -0.640625 -1.015625l0 -0.984375q-0.453125 -0.828125 -1.03125 -1.578125q-0.5625 -0.765625 -0.5625 -2.046875q0.234375 -0.15625 0.34375 -0.34375q0.109375 -0.1875 0.265625 -0.34375q0.21875 -0.140625 0.484375 -0.171875q0.265625 -0.046875 0.5 -0.203125q0.375 -0.21875 0.828125 -0.375q0.453125 -0.15625 0.609375 -0.671875q0.375 0 0.671875 -0.15625q0.296875 -0.15625 0.6875 -0.296875q0.515625 -0.390625 0.671875 -0.421875q0.15625 -0.03125 0.296875 -0.109375q0.234375 -0.234375 0.421875 -0.453125q0.1875 -0.234375 0.421875 -0.375q0.453125 0.140625 0.5625 0.03125q0.109375 -0.109375 0.71875 0.1875q0.828125 0.53125 1.203125 2.046875q0.15625 0.75 0.421875 1.125q0.265625 0.375 0.484375 0.75q0.296875 0.453125 0.96875 1.140625q0.6875 0.671875 1.296875 1.0625q0.375 0.21875 0.828125 0.59375q0.453125 0.375 0.6875 0.53125q0.21875 0.078125 0.5625 0.078125q0.34375 0 0.71875 0.078125q0.296875 0.078125 0.515625 0.15625q0.234375 0.0625 0.46875 0.0625q1.28125 0.15625 2.109375 0.125q0.828125 -0.046875 1.890625 -0.34375q0.609375 -0.15625 1.171875 -0.34375q0.5625 -0.1875 1.015625 -0.484375q0.609375 -0.453125 0.9375 -0.828125q0.34375 -0.390625 0.71875 -1.140625q0.15625 -0.53125 0.265625 -0.640625q0.125 -0.109375 0.125 -0.265625q0.0625 -0.234375 0.0625 -0.53125q0 -0.296875 0.078125 -0.671875q0.078125 -0.3125 0.15625 -0.640625q0.078125 -0.34375 0.15625 -0.5q0 -0.609375 -0.15625 -1.09375q-0.15625 -0.484375 -0.234375 -1.09375q-0.296875 -0.375 -0.671875 -0.75q-0.375 -0.390625 -0.53125 -0.984375q-0.609375 -0.53125 -1.25 -1.0625q-0.640625 -0.53125 -0.78125 -1.578125q-0.234375 -0.15625 -0.546875 -0.1875q-0.296875 -0.046875 -0.515625 -0.203125q0 -0.75 -0.421875 -1.203125q-0.40625 -0.453125 -0.859375 -0.90625q-0.15625 -0.296875 -0.265625 -0.40625q-0.109375 -0.125 -0.34375 -0.265625q-0.296875 -0.53125 -0.609375 -0.609375q-0.453125 -0.375 -0.96875 -0.75q-0.90625 -0.6875 -1.78125 -1.703125q-0.875 -1.015625 -1.921875 -1.78125q-0.078125 -0.59375 -0.390625 -0.96875q-0.296875 -0.390625 -0.671875 -0.6875q-0.375 -1.65625 -1.4375 -2.71875q0.078125 -0.375 -0.078125 -0.59375q-0.140625 -0.234375 -0.296875 -0.609375q-0.21875 -0.53125 -0.375 -0.71875q-0.15625 -0.1875 -0.234375 -0.265625q-0.140625 -0.609375 -0.1875 -1.25q-0.03125 -0.640625 -0.328125 -1.25q0.0625 -0.296875 0.171875 -0.515625q0.125 -0.234375 0.125 -0.609375q-0.234375 -0.828125 -0.234375 -1.125q0 -0.3125 -0.21875 -0.3125q0.15625 -0.53125 -0.078125 -1.015625q-0.21875 -0.5 -0.296875 -1.015625q0 -0.53125 0.0625 -1.09375q0.078125 -0.578125 0.15625 -0.953125q-0.078125 -0.609375 0.140625 -1.203125q0.234375 -0.609375 0.390625 -0.90625q0.234375 -0.765625 0.609375 -1.359375q0.375 -0.609375 0.703125 -1.203125q0.34375 -0.609375 0.421875 -1.140625q0.53125 -0.296875 0.671875 -0.671875q0.15625 -0.390625 0.546875 -0.765625q0.90625 -0.75 1.125 -0.90625q0.453125 -0.375 0.9375 -0.671875q0.5 -0.3125 0.875 -0.53125q0.75 -0.234375 0.90625 -0.375q0.15625 -0.15625 0.296875 -0.15625q0.609375 -0.078125 0.75 -0.15625q0.15625 -0.078125 0.234375 -0.078125q0.53125 -0.140625 1.0625 -0.140625q0.53125 0 1.125 -0.078125q0.390625 0 0.84375 -0.03125q0.453125 -0.046875 1.046875 0.109375q0.3125 0.078125 0.53125 0.1875q0.234375 0.109375 0.53125 0.1875q1.125 0.15625 2.421875 0q0.21875 0.15625 0.484375 0.34375q0.265625 0.1875 0.484375 0.328125q1.140625 0.15625 1.75 0.765625q1.203125 0.21875 1.796875 0.640625q0.609375 0.40625 1.140625 0.796875q0.234375 0.0625 0.375 0.140625q0.15625 0.078125 0.453125 0q0.234375 0.453125 0.5625 0.71875q0.34375 0.265625 0.65625 0.5625q0.90625 0.390625 1.46875 0.546875q0.5625 0.140625 1.015625 0.4375q0.234375 0.15625 0.453125 0.203125q0.234375 0.03125 0.375 0.171875q0.375 0.234375 0.53125 0.765625zm50.221252 8.984375q0 0.375 -0.15625 0.875q-0.15625 0.484375 -0.15625 0.9375q0 0.375 0.03125 0.828125q0.046875 0.453125 0.046875 0.828125q0 0.6875 -0.15625 1.515625q-0.140625 0.828125 -0.21875 1.8125q-0.078125 0.75 -0.046875 1.390625q0.046875 0.640625 -0.25 1.40625q0.140625 0.59375 0.109375 1.4375q-0.03125 0.828125 -0.109375 1.875q0 0.3125 0.0625 0.578125q0.078125 0.25 0.078125 0.5625q-0.140625 0.453125 -0.078125 0.640625q0.078125 0.1875 0.015625 0.34375q0 0.453125 -0.15625 0.796875q-0.15625 0.328125 -0.234375 0.703125q-0.0625 0.3125 -0.03125 0.609375q0.03125 0.296875 0.03125 0.609375q-0.0625 0.296875 -0.140625 0.609375q-0.078125 0.296875 -0.15625 0.671875q-0.15625 0.90625 -0.234375 1.96875q-0.0625 1.046875 -0.296875 2.03125q-0.375 0.75 -0.453125 1.28125q-0.078125 0.53125 -0.21875 1.0625q-0.15625 0.453125 -0.265625 0.828125q-0.109375 0.375 -0.265625 0.90625q-0.15625 0.375 -0.390625 1.25q-0.21875 0.859375 -0.359375 1.46875q-0.078125 0.21875 -0.15625 0.453125q-0.078125 0.21875 -0.234375 0.53125q-0.140625 0.375 -0.265625 0.6875q-0.109375 0.296875 -0.25 0.59375q-0.3125 0.453125 -0.3125 0.609375q0 0.140625 -0.078125 0.21875q-0.375 0.375 -0.453125 0.421875q-0.0625 0.03125 -0.140625 0.1875q-0.3125 0.375 -0.578125 0.875q-0.25 0.484375 -0.640625 1.015625q-0.515625 0.515625 -0.59375 0.828125q-0.3125 0.375 -0.765625 0.875q-0.4375 0.484375 -0.890625 0.859375q-0.234375 0.296875 -0.578125 0.484375q-0.328125 0.1875 -0.640625 0.421875q-0.59375 0.609375 -0.90625 0.9375q-0.296875 0.34375 -0.59375 0.5q-0.765625 0.453125 -1.75 0.375q-0.59375 0.75 -1.6875 0.96875q-1.09375 0.234375 -2.2343445 0.46875q-0.53125 -0.234375 -0.828125 -0.765625q-0.375 0.078125 -0.53125 0.265625q-0.15625 0.1875 -0.53125 0.1875q-0.375 0 -0.640625 -0.109375q-0.265625 -0.109375 -0.5625 -0.109375q-0.453125 0.21875 -0.984375 0.171875q-0.53125 -0.03125 -1.359375 -0.171875q-0.375 0 -0.71875 0q-0.34375 0 -0.640625 -0.15625q-1.8125 -0.75 -2.640625 -0.609375q-0.234375 -0.375 -0.65625 -0.453125q-0.40625 -0.0625 -0.78125 -0.296875q-0.53125 -0.453125 -0.828125 -0.59375q-0.296875 -0.15625 -0.234375 -0.390625q-0.515625 -0.375 -0.78125 -0.4375q-0.265625 -0.078125 -0.125 -0.46875q-0.375 0 -0.484375 -0.03125q-0.109375 -0.03125 -0.484375 -0.265625q-0.234375 -0.15625 -0.34375 -0.375q-0.109375 -0.234375 -0.5 -0.15625q-0.140625 -0.296875 -0.40625 -0.375q-0.265625 -0.078125 -0.265625 -0.453125q-0.375 0 -0.5625 -0.21875q-0.1875 -0.234375 -0.5 -0.3125q-0.296875 -0.59375 -0.875 -1.046875q-0.5625 -0.453125 -1.15625 -0.90625q-0.234375 -0.15625 -0.5 -0.34375q-0.265625 -0.1875 -0.40625 -0.421875q-0.234375 -0.21875 -0.421875 -0.59375q-0.1875 -0.390625 -0.40625 -0.765625q-0.53125 -0.59375 -0.609375 -0.78125q-0.078125 -0.203125 -0.234375 -0.34375q-0.59375 -0.375 -0.671875 -0.53125q-0.078125 -0.15625 -0.15625 -0.234375q-0.140625 -0.21875 -0.40625 -0.625q-0.265625 -0.421875 -0.265625 -0.875q-0.15625 -0.234375 -0.3125 -0.421875q-0.140625 -0.1875 -0.296875 -0.40625q0.15625 -0.390625 -0.03125 -0.609375q-0.1875 -0.234375 -0.265625 -0.609375q-0.15625 -0.59375 -0.15625 -1.3125q0 -0.71875 -0.15625 -1.328125q-0.21875 -0.75 -0.59375 -1.203125q0.078125 -0.828125 -0.125 -1.046875q-0.1875 -0.234375 -0.328125 -0.390625q0.078125 -1.140625 -0.375 -1.734375q0.296875 -0.828125 -0.078125 -1.578125q-0.375 -0.765625 -0.15625 -1.515625q0.15625 -0.3125 0.109375 -0.53125q-0.03125 -0.234375 -0.03125 -0.6875q-0.078125 -0.59375 0.15625 -1.578125q0.0625 -0.234375 -0.125 -0.5q-0.1875 -0.265625 -0.265625 -0.5625q-0.0625 -0.375 0.125 -1.015625q0.1875 -0.640625 0.1875 -1.171875q0 -0.296875 -0.078125 -0.515625q-0.078125 -0.234375 0 -0.46875q0 -0.296875 0.140625 -0.484375q0.15625 -0.1875 0.234375 -0.421875q-0.15625 -0.828125 -0.125 -1.546875q0.046875 -0.71875 -0.09375 -1.546875q0.515625 -0.6875 0.40625 -0.875q-0.109375 -0.1875 -0.109375 -0.484375q0.53125 -0.90625 0.75 -1.890625q0 -0.296875 -0.046875 -0.5625q-0.03125 -0.265625 0.046875 -0.5q0.234375 -0.828125 0.1875 -1.15625q-0.03125 -0.34375 0.125 -0.71875q0.140625 -0.765625 0.453125 -0.984375q-0.15625 -0.53125 -0.28125 -1.171875q-0.109375 -0.640625 0.203125 -1.25q0.375 -0.21875 0.859375 -0.25q0.5 -0.046875 0.875 -0.28125q0.15625 0.15625 0.53125 0.125q0.375 -0.046875 0.375 0.265625q0.828125 -0.15625 1.125 -0.265625q0.3125 -0.125 0.609375 -0.125q0.828125 0 1.578125 0.046875q0.765625 0.03125 1.4375 -0.046875q0.453125 0.84375 0.5625 1.296875q0.125 0.453125 0.203125 1.203125q0.140625 1.203125 0.109375 2.5625q-0.03125 1.359375 -0.109375 2.796875q0 0.296875 0.0625 0.5625q0.078125 0.265625 0.078125 0.5625q-0.0625 0.453125 -0.109375 0.90625q-0.03125 0.453125 -0.03125 0.984375q-0.15625 0.609375 -0.15625 0.984375q0.234375 1.0625 0.265625 1.890625q0.03125 0.828125 0.03125 1.125q-0.140625 0.609375 0.046875 1.1875q0.1875 0.5625 -0.109375 1.15625q0.59375 0.828125 0.59375 1.96875q0 1.125 0.078125 2.421875q0.078125 0.515625 0.21875 1.015625q0.15625 0.484375 0.15625 1.171875q-0.140625 0.59375 -0.03125 0.90625q0.109375 0.296875 0.109375 0.53125q0 0.828125 -0.078125 1.65625q-0.078125 0.828125 0.15625 1.578125q0.078125 0.3125 0.1875 0.609375q0.109375 0.296875 0.265625 0.609375q0.15625 0.375 0.21875 0.75q0.078125 0.375 0.234375 0.53125q0.15625 0.21875 0.296875 0.375q0.15625 0.15625 0.3125 0.296875q0.59375 0.765625 0.9375 1.140625q0.34375 0.375 0.796875 0.53125q0 0.296875 0.109375 0.484375q0.109375 0.1875 0.1875 0.421875q0.296875 0 0.5625 0.078125q0.265625 0.0625 0.640625 0.140625q0.15625 0.3125 0.453125 0.46875q0.3125 0.140625 0.453125 0.4375q0.765625 0 1.21875 0.453125q0.453125 -0.140625 0.90625 0.09375q0.453125 0.21875 1.125 0.21875q0.234375 0 0.609375 -0.109375q0.375 -0.125 0.609375 -0.125q1.203125 -0.15625 2.25 -0.296875q1.0625 -0.15625 1.6718445 -0.53125q0.296875 -0.375 0.484375 -0.484375q0.1875 -0.125 0.34375 -0.265625q0.453125 -0.609375 0.796875 -1.0625q0.34375 -0.453125 0.640625 -0.828125q0.296875 -0.234375 0.671875 -0.828125q0.15625 -0.3125 0.34375 -0.640625q0.1875 -0.34375 0.5 -0.578125q0.0625 -0.828125 0.328125 -1.3125q0.265625 -0.5 0.640625 -1.03125q0 -0.453125 0.03125 -0.828125q0.046875 -0.375 0.359375 -0.59375q-0.15625 -0.3125 -0.015625 -0.53125q0.15625 -0.234375 0.078125 -0.6875q0.078125 -0.21875 0.234375 -0.375q0.15625 -0.15625 0.296875 -0.453125q0.078125 -0.15625 0.03125 -0.40625q-0.03125 -0.265625 0.203125 -0.421875q-0.375 -0.828125 -0.265625 -1.953125q0.109375 -1.140625 0.34375 -2.203125q0.0625 -0.375 0.21875 -0.640625q0.15625 -0.265625 0.15625 -0.5625q0 -0.828125 0.0625 -1.171875q0.078125 -0.34375 0.15625 -0.640625q0 -0.375 -0.078125 -0.671875q-0.0625 -0.3125 -0.0625 -0.6875q0 -0.234375 0.0625 -0.5q0.078125 -0.265625 0.078125 -0.5625q0 -0.453125 -0.078125 -0.828125q-0.0625 -0.375 -0.140625 -0.75q0 -0.3125 0.0625 -0.578125q0.078125 -0.265625 0.078125 -0.640625q0.078125 -0.375 0 -0.78125q-0.0625 -0.421875 -0.0625 -0.875q0 -0.296875 0.0625 -0.5625q0.078125 -0.265625 0.078125 -0.640625q0 -0.234375 -0.046875 -0.5q-0.03125 -0.265625 -0.03125 -0.484375q0 -0.375 0.15625 -0.75q0.15625 -0.390625 0 -0.765625q-0.296875 -0.375 -0.234375 -0.515625q0.078125 -0.15625 0.015625 -0.3125q-0.15625 -0.296875 -0.234375 -0.515625q-0.078125 -0.234375 -0.15625 -0.390625q-0.0625 -0.21875 -0.0625 -0.296875q0.0625 -0.609375 -0.015625 -0.875q-0.0625 -0.265625 -0.0625 -0.484375q0 -0.6875 0.0625 -0.875q0.078125 -0.1875 0.15625 -0.34375q0.3125 -0.453125 0.828125 -0.640625q0.53125 -0.1875 1.140625 -0.25q0.609375 -0.078125 1.28125 -0.078125q0.671875 0 1.28125 -0.078125q0.828125 -0.234375 1.171875 -0.1875q0.34375 0.03125 0.5625 -0.046875q0.453125 -0.078125 0.9375 -0.21875q0.5 -0.15625 1.109375 0.296875q0.59375 -0.453125 1.3125 -0.40625q0.71875 0.03125 1.09375 0.5625q0.234375 0.296875 0.265625 0.53125q0.046875 0.21875 0.1875 0.75q0.078125 0.375 0.109375 0.5625q0.046875 0.1875 -0.03125 0.71875q-0.078125 0.375 0.078125 0.90625q0.15625 0.53125 0.15625 0.984375zm19.861206 -14.28125q0.140625 0.15625 0.0625 1.0625q-0.0625 0.90625 -0.21875 1.28125q-0.078125 0.234375 -0.234375 0.421875q-0.140625 0.1875 -0.296875 0.34375q-0.140625 0.90625 -0.453125 1.4375q-0.296875 0.515625 -0.453125 0.890625q-0.375 0.15625 -0.71875 0.421875q-0.328125 0.265625 -0.71875 0.421875q-0.90625 0.296875 -1.515625 0.5625q-0.59375 0.265625 -1.203125 0.265625q-0.296875 0 -0.53125 -0.109375q-0.21875 -0.125 -0.4375 -0.203125q-0.390625 -0.0625 -0.765625 -0.0625q-0.375 0 -0.75 -0.078125q-0.375 -0.6875 -0.875 -1.25q-0.484375 -0.5625 -0.71875 -1.390625q-0.21875 -0.3125 -0.671875 -0.765625q0 -0.59375 -0.234375 -1.078125q-0.21875 -0.5 -0.21875 -1.109375q0 -0.453125 0.296875 -1.203125q0.078125 -0.375 0.109375 -0.75q0.046875 -0.390625 0.125 -0.53125q0.53125 -0.609375 0.75 -0.71875q0.234375 -0.125 0.375 -0.34375q0.3125 -0.53125 0.3125 -0.671875q0 -0.15625 0.0625 -0.3125q0.234375 -0.296875 0.640625 -0.5625q0.421875 -0.265625 0.796875 -0.5q0.375 -0.296875 0.984375 -0.25q0.609375 0.03125 1.4375 -0.046875q0.296875 0.609375 0.96875 0.84375q0.6875 0.21875 1.0625 0.8125q0.609375 0.15625 0.75 0.203125q0.15625 0.03125 0.3125 0.1875q1.28125 0.90625 1.890625 2.40625l0.078125 0.375zm0.21875 13.078125q-0.140625 0.75 -0.265625 1.46875q-0.109375 0.71875 -0.03125 1.625q0 0.375 0.109375 0.671875q0.109375 0.296875 0.109375 0.6875q0 0.515625 -0.15625 1.09375q-0.140625 0.5625 -0.140625 1.171875q0 0.59375 0 1.09375q0 0.484375 0.078125 1.09375q0 0.296875 0.078125 0.421875q0.078125 0.109375 -0.078125 0.40625q-0.453125 1.0625 -0.234375 2.71875q0.234375 1.65625 0.234375 2.9375q-0.078125 0.765625 -0.234375 1.515625q-0.140625 0.75 -0.21875 1.59375q-0.15625 1.734375 -0.203125 3.4375q-0.03125 1.6875 -0.171875 3.359375q-0.078125 0.453125 -0.046875 0.9375q0.046875 0.484375 -0.03125 0.875q-0.078125 1.046875 -0.1875 2.03125q-0.109375 0.984375 -0.265625 1.890625q-0.078125 0.671875 0 1.328125q0.078125 0.640625 0.078125 1.3125q0 0.375 0.03125 0.6875q0.046875 0.296875 0.046875 0.671875q0.0625 0.296875 0.140625 0.5625q0.078125 0.265625 0.078125 0.640625q-0.078125 0.3125 -0.078125 0.5q0 0.1875 0 0.34375q0 0.140625 0.078125 0.21875q-0.15625 0.609375 -0.078125 0.796875q0.078125 0.1875 0.078125 0.34375q-0.078125 0.21875 -0.1875 0.484375q-0.109375 0.265625 -0.109375 0.640625q0 0.609375 0.109375 1.171875q0.109375 0.5625 -0.03125 1.171875q-0.53125 0.21875 -0.984375 0.484375q-0.453125 0.265625 -1.28125 0.046875q-0.390625 -0.15625 -0.46875 -0.609375q-0.0625 -0.453125 -0.375 -0.75q-0.59375 -0.078125 -1.015625 -0.21875q-0.40625 -0.15625 -0.796875 -0.390625q-0.296875 0.15625 -0.796875 0.046875q-0.484375 -0.125 -1.015625 -0.203125q-0.59375 -0.140625 -1.125 -0.140625q-0.53125 0 -0.828125 -0.15625q-0.453125 -0.609375 -0.5 -1.09375q-0.03125 -0.484375 -0.328125 -0.71875q0.296875 -0.671875 0.375 -1.203125q0.140625 -0.765625 -0.015625 -1.40625q-0.140625 -0.640625 -0.0625 -1.390625q0 -0.234375 0.15625 -0.828125q0.0625 -0.53125 0.0625 -0.90625q0 -0.375 0.078125 -0.765625q0.078125 -0.59375 0.15625 -0.703125q0.078125 -0.125 0.15625 -0.265625q0.0625 -1.296875 0.09375 -2.65625q0.046875 -1.359375 0.125 -1.953125q0 -0.375 0.03125 -0.5625q0.046875 -0.203125 0.046875 -0.578125q0 -1.5 0.109375 -2.59375q0.109375 -1.109375 0.046875 -2.3125q-0.078125 -0.828125 0.03125 -1.5q0.109375 -0.6875 0.109375 -1.375q0.078125 -0.828125 -0.03125 -1.46875q-0.109375 -0.640625 0.265625 -1.3125q-0.3125 -0.765625 -0.203125 -1.515625q0.125 -0.75 0.125 -1.4375q0 -0.609375 0 -1.125q0 -0.53125 0.078125 -1.140625q0 -0.375 -0.078125 -0.78125q-0.078125 -0.421875 0.078125 -0.796875q0.078125 -0.84375 0.109375 -1.171875q0.03125 -0.34375 0.03125 -0.5q0 -0.296875 -0.109375 -0.515625q-0.109375 -0.234375 -0.109375 -0.46875q0 -0.296875 0.03125 -0.515625q0.046875 -0.234375 -0.03125 -0.453125q-0.15625 -0.90625 -0.203125 -1.25q-0.03125 -0.34375 0.046875 -0.5625q-0.078125 -0.375 -0.453125 -0.453125q-0.375 -0.078125 -0.53125 -0.375q-0.140625 -0.609375 -0.296875 -1.328125q-0.15625 -0.71875 0.375 -1.09375q0.375 -0.15625 0.71875 -0.109375q0.34375 0.03125 0.875 0.109375q0.453125 0.15625 0.59375 0.078125q0.15625 -0.078125 0.3125 0q0.21875 0.078125 0.484375 0.1875q0.265625 0.109375 0.5625 0.1875q0.765625 0.078125 1.734375 0q0.984375 -0.078125 1.921875 -0.1875q0.953125 -0.109375 1.703125 -0.140625q0.765625 -0.046875 1.0625 0.171875q0.234375 0.15625 0.234375 0.421875q0 0.265625 0.21875 0.34375zm32.097473 3.234375q-0.078125 0.765625 0 1.0625q0.078125 0.296875 0 0.453125q-0.15625 0.53125 -0.53125 0.71875q-0.375 0.1875 -0.671875 0.484375q-0.765625 -0.375 -1.375 -0.140625q-0.59375 0.21875 -1.203125 0.375q-0.140625 0 -0.484375 0.046875q-0.34375 0.03125 -0.484375 0.03125q-0.609375 0 -1.140625 0.234375q-0.53125 0.21875 -0.984375 0.28125q-0.375 0.078125 -0.6875 0.015625q-0.296875 -0.078125 -0.671875 0.140625q-0.296875 0.6875 -0.1875 1.484375q0.109375 0.78125 -0.03125 1.609375q-0.15625 1.21875 -0.046875 1.9375q0.125 0.703125 0.125 1.3125q0 0.6875 -0.046875 1.296875q-0.03125 0.59375 0.265625 1.125q-0.21875 0.453125 -0.265625 1.09375q-0.03125 0.640625 -0.03125 1.25q-0.15625 1.046875 -0.015625 2.40625q0.15625 1.359375 0.15625 2.421875q-0.0625 0.53125 -0.109375 0.953125q-0.03125 0.40625 -0.109375 0.859375q-0.15625 0.609375 -0.078125 0.765625q0.078125 0.140625 0.078125 0.296875q-0.078125 0.75 -0.046875 1.734375q0.046875 0.984375 -0.03125 2.03125q0 0.6875 -0.078125 0.984375q-0.078125 0.296875 -0.078125 0.53125q0.078125 0.609375 0.1875 1.296875q0.125 0.671875 -0.40625 1.34375q0 0.234375 0.109375 0.421875q0.109375 0.1875 0.1875 0.40625q-0.140625 0.609375 -0.03125 0.921875q0.109375 0.296875 0.109375 0.4375q-0.15625 0.828125 -0.078125 1.40625q0.078125 0.5625 0.15625 1.09375q0 2.34375 -0.984375 3.09375q-0.984375 -0.15625 -1.9375 -0.3125q-0.9375 -0.140625 -1.90625 0q-0.453125 0.078125 -0.90625 0.1875q-0.453125 0.125 -1.0625 -0.109375q-0.375 0.078125 -0.53125 0.1875q-0.15625 0.125 -0.453125 0.125q-0.296875 0.0625 -0.53125 -0.171875q-0.21875 -0.21875 -0.53125 -0.28125q-0.140625 -0.90625 -0.03125 -2.265625q0.109375 -1.359375 0.03125 -2.875q0 -0.375 -0.078125 -0.640625q-0.0625 -0.265625 -0.140625 -0.640625q-0.078125 -0.53125 -0.046875 -1.09375q0.046875 -0.5625 -0.03125 -1.171875q0 -0.234375 0.078125 -0.484375q0.078125 -0.265625 0.078125 -0.5q0 -0.296875 -0.125 -0.328125q-0.109375 -0.046875 -0.109375 -0.5q0 -0.984375 0.1875 -1.8125q0.1875 -0.828125 0.34375 -1.65625q-0.15625 -0.90625 -0.15625 -1.328125q0 -0.421875 0 -0.71875q-0.0625 -0.296875 -0.21875 -0.671875q-0.15625 -0.390625 -0.15625 -0.765625q0 -0.296875 0.03125 -0.4375q0.046875 -0.15625 -0.109375 -0.546875q-0.0625 -1.28125 0.046875 -2.296875q0.109375 -1.015625 0.03125 -2.0q-0.21875 -0.828125 -0.21875 -1.3125q0 -0.5 -0.078125 -0.875q-0.078125 -0.53125 -0.125 -1.125q-0.03125 -0.609375 0.046875 -1.296875q0 -0.296875 0.078125 -0.515625q0.078125 -0.234375 0.078125 -0.546875q0 -0.375 -0.125 -0.671875q-0.109375 -0.296875 -0.109375 -0.6875q0 -0.59375 0.109375 -1.265625q0.125 -0.6875 0.125 -1.296875q-0.078125 -0.21875 -0.15625 -0.484375q-0.078125 -0.265625 -0.078125 -0.5q-0.078125 -0.75 0.109375 -1.421875q0.203125 -0.6875 0.046875 -1.375q-1.515625 0.3125 -2.421875 0.609375q-0.296875 0.078125 -0.5625 0.125q-0.265625 0.03125 -0.640625 0.171875q-0.609375 0.15625 -0.984375 0.3125q-0.375 0.140625 -0.828125 -0.234375q-0.6875 -0.59375 -0.828125 -0.984375q-0.078125 -0.59375 0.1875 -0.96875q0.265625 -0.390625 0.640625 -0.765625q-0.15625 -0.296875 0 -0.4375q0.15625 -0.15625 0.21875 -0.546875q0.078125 -0.375 0.03125 -0.78125q-0.03125 -0.421875 0.125 -0.875q0.15625 -0.453125 0.375 -0.828125q0.234375 -0.375 0.3125 -0.75q0.0625 -0.53125 -0.09375 -1.0625q-0.140625 -0.53125 0.015625 -1.0625q0.21875 -1.28125 1.890625 -0.96875q0.453125 0.140625 0.828125 0.21875q0.375 0.078125 0.53125 0.453125q0.671875 -0.078125 1.015625 0.15625q0.34375 0.21875 0.9375 0.21875q0.53125 -0.671875 0.453125 -1.796875q-0.078125 -1.140625 0 -2.421875q0.15625 -0.6875 0.078125 -0.984375q-0.078125 -0.3125 -0.15625 -0.609375q-0.140625 -1.125 0.078125 -2.109375q0.078125 -0.234375 0.15625 -0.5q0.078125 -0.265625 0.078125 -0.484375q0 -0.609375 -0.234375 -1.0625q0 -0.453125 -0.109375 -0.671875q-0.109375 -0.234375 -0.234375 -0.375q-0.109375 -0.15625 -0.1875 -0.265625q-0.0625 -0.125 0 -0.421875q0.53125 -0.53125 0.75 -0.484375q0.234375 0.03125 0.609375 0.03125q0.609375 -0.15625 1.015625 -0.21875q0.421875 -0.078125 1.109375 0.0625q0.671875 -0.140625 1.046875 -0.03125q0.390625 0.109375 0.84375 0.1875q0.296875 -0.078125 0.515625 -0.21875q0.234375 -0.15625 0.453125 -0.234375q0.234375 0.15625 0.609375 0.046875q0.375 -0.125 0.53125 0.1875q0.375 0.515625 0.515625 0.640625q0.15625 0.109375 0.15625 0.265625q0.15625 0.59375 0.046875 1.6875q-0.109375 1.09375 -0.1875 1.9375q0.078125 0.375 0.078125 0.71875q0 0.328125 0 0.703125q0 0.234375 -0.078125 0.609375q-0.078125 0.375 -0.078125 0.53125q0.21875 0.671875 0.1875 1.015625q-0.03125 0.34375 0.03125 0.5q0.078125 0.515625 0.234375 0.9375q0.15625 0.421875 -0.375 0.9375q0.140625 0.453125 0.0625 0.875q-0.0625 0.421875 -0.140625 0.9375q0 0.234375 0.03125 0.546875q0.046875 0.296875 0.046875 0.515625q0 0.375 -0.15625 0.6875q-0.15625 0.296875 0 0.671875q0.609375 0.078125 1.0625 -0.21875q0.453125 -0.3125 0.90625 -0.453125q0.453125 -0.15625 0.9375 -0.109375q0.5 0.03125 0.953125 -0.34375q0.375 0.296875 0.828125 0q0.453125 -0.3125 0.75 0.140625q0.375 -0.453125 1.28125 -0.671875q0.90625 -0.234375 1.515625 0q0.296875 0.59375 0.453125 0.796875q0.15625 0.1875 0.21875 0.328125q0.078125 0.15625 0 0.421875q-0.0625 0.265625 0 0.5625q0.15625 0.609375 0.109375 0.796875q-0.03125 0.1875 -0.03125 0.34375q0.078125 0.515625 0.21875 0.96875q0.15625 0.453125 0.234375 0.828125l0.078125 0.53125zm47.727264 17.078125q-0.078125 1.046875 0 1.4375q0.078125 0.375 -0.15625 0.828125q-0.140625 0.296875 -0.5625 0.453125q-0.421875 0.140625 -0.5625 0.453125q-0.453125 -0.15625 -0.984375 -0.109375q-0.53125 0.03125 -0.90625 0.171875q-0.53125 -0.453125 -1.484375 -0.375q-0.9375 0.078125 -1.53125 -0.375q-0.453125 0.234375 -0.84375 0.234375q-1.046875 0.140625 -2.21875 -0.078125q-1.171875 -0.234375 -2.375 -0.375q-0.828125 -0.078125 -1.734375 -0.078125q-0.90625 0 -1.59375 0q-0.75 0.140625 -1.203125 0.140625q-0.609375 -0.0625 -1.109375 -0.28125q-0.484375 -0.234375 -1.078125 -0.234375q-0.453125 -0.078125 -0.953125 0.03125q-0.484375 0.109375 -0.9375 0.109375q-0.453125 0 -1.21875 -0.140625q-0.59375 0.0625 -0.828125 0.03125q-0.21875 -0.03125 -0.375 -0.03125q-0.53125 0 -1.03125 0.078125q-0.484375 0.0625 -0.859375 -0.390625q-0.296875 0.234375 -0.53125 0.3125q-0.21875 0.0625 -0.828125 0.0625q-0.375 -0.0625 -0.5625 -0.09375q-0.1875 -0.046875 -0.34375 -0.046875q-0.53125 0.140625 -0.875 0.078125q-0.328125 -0.078125 -0.625 0.21875q-0.15625 -0.15625 -0.53125 -0.109375q-0.375 0.03125 -0.53125 -0.109375q-0.984375 -0.15625 -1.59375 0q-0.59375 0.140625 -1.28125 0.140625q-0.59375 0 -1.171875 -0.140625q-0.5625 -0.15625 -1.390625 0q-0.375 0.671875 -0.265625 1.703125q0.109375 1.015625 0.5625 1.609375q0.078125 0.375 -0.03125 0.609375q-0.109375 0.21875 -0.109375 0.609375q0.59375 0.828125 1.0 1.203125q0.421875 0.375 0.65625 0.75q0.375 0.609375 0.90625 1.140625q0.53125 0.53125 0.984375 1.203125q0.140625 0.375 0.40625 0.609375q0.265625 0.21875 0.5 0.59375q0.59375 0.15625 1.015625 0.46875q0.421875 0.296875 1.015625 0.671875q0.828125 0.453125 1.171875 0.796875q0.34375 0.328125 0.875 0.5625q0.375 0.15625 0.59375 0.125q0.234375 -0.046875 0.453125 0.03125q0.390625 0.140625 0.84375 0.53125q0.453125 0.375 0.96875 0.4375q0.84375 -0.0625 1.21875 -0.03125q0.375 0.03125 0.671875 0.109375q0.984375 0.078125 1.8125 -0.453125q0.375 0 0.59375 0q0.234375 0 0.625 -0.078125q0.671875 -0.453125 1.015625 -0.453125q0.34375 0 0.5625 -0.140625q0.234375 -0.234375 0.421875 -0.265625q0.1875 -0.046875 0.328125 -0.109375q0.453125 -0.15625 0.796875 -0.375q0.34375 -0.234375 0.71875 -0.53125q0.53125 -0.3125 0.984375 -0.6875q0.75 -0.453125 1.3125 -1.28125q0.578125 -0.828125 1.25 -1.4375q0.078125 -0.90625 0.296875 -1.5q0.234375 -0.609375 0.609375 -1.140625q0 -0.828125 0.1875 -1.3125q0.1875 -0.5 0.5 -0.953125q0.375 -0.078125 0.671875 -0.15625q0.3125 -0.078125 0.765625 0.078125q0.21875 0.15625 0.40625 0.265625q0.1875 0.109375 0.5625 0.265625q0.234375 0.15625 0.5 0.1875q0.265625 0.03125 0.78125 0.1875q0.53125 0.234375 0.75 0.234375q0.234375 0 0.46875 0.0625q0.59375 0.3125 1.078125 0.234375q0.5 -0.078125 0.875 0.078125q0.84375 0.59375 0.984375 0.90625q0 0.90625 -0.53125 1.65625q-0.375 0.828125 -0.34375 1.015625q0.046875 0.1875 -0.03125 0.578125q-0.078125 0.21875 -0.234375 0.375q-0.140625 0.140625 -0.21875 0.453125q-0.140625 0.453125 -0.21875 0.875q-0.078125 0.40625 -0.3125 0.859375q-0.59375 0.75 -0.9375 1.09375q-0.34375 0.34375 -0.71875 0.484375q0.15625 0.390625 -0.15625 0.578125q-0.296875 0.1875 -0.453125 0.328125q-0.21875 0.53125 -0.640625 0.84375q-0.40625 0.296875 -0.9375 0.671875q-0.609375 0.53125 -1.25 0.90625q-0.640625 0.375 -1.234375 0.75q-0.84375 0.6875 -1.140625 0.953125q-0.296875 0.265625 -0.75 0.40625q-0.375 0.15625 -0.578125 0.28125q-0.1875 0.109375 -0.25 0.109375q-0.390625 0.140625 -0.84375 0.140625q-0.453125 0 -0.90625 0.15625q-0.828125 0.296875 -1.4375 0.40625q-0.59375 0.125 -1.203125 0.265625q-0.375 0.15625 -0.6875 0.234375q-0.296875 0.078125 -0.890625 0q-0.765625 -0.15625 -1.140625 0.0625q-0.375 0.234375 -0.75 -0.0625q-0.828125 0.140625 -1.40625 0.296875q-0.5625 0.15625 -1.015625 0.078125q-0.21875 0 -0.453125 -0.078125q-0.21875 -0.078125 -0.453125 -0.15625q-1.4375 -0.21875 -2.3125 -0.296875q-0.859375 -0.078125 -1.53125 -0.296875q-0.234375 -0.078125 -0.46875 -0.078125q-0.21875 0 -0.359375 -0.296875q-0.765625 0.140625 -1.40625 -0.1875q-0.640625 -0.34375 -1.015625 -0.71875q-0.234375 0 -0.421875 -0.078125q-0.1875 -0.078125 -0.40625 -0.15625q-0.53125 -0.21875 -1.0625 -0.484375q-0.53125 -0.265625 -0.828125 -0.875q-0.609375 0 -0.875 -0.296875q-0.265625 -0.296875 -0.640625 -0.609375q-0.59375 0 -1.09375 -0.328125q-0.484375 -0.34375 -0.796875 -0.796875q-0.59375 -0.765625 -1.125 -1.21875q-0.828125 -0.828125 -1.28125 -1.390625q-0.453125 -0.5625 -1.140625 -0.796875q-0.140625 -0.453125 -0.453125 -0.75q-0.296875 -0.296875 -0.59375 -0.6875q-0.390625 -0.75 -0.546875 -0.96875q-0.140625 -0.234375 -0.296875 -0.390625q-0.140625 -0.59375 -0.265625 -1.15625q-0.109375 -0.578125 -0.25 -1.171875q-0.234375 -0.84375 -0.234375 -1.21875q0 -0.375 -0.078125 -0.75q-0.078125 -0.234375 -0.1875 -0.453125q-0.109375 -0.234375 -0.1875 -0.453125q-0.078125 -0.375 -0.046875 -0.75q0.046875 -0.390625 -0.03125 -0.84375q-0.078125 -0.375 -0.15625 -0.703125q-0.0625 -0.34375 -0.0625 -0.71875q0 -0.53125 0.0625 -1.09375q0.078125 -0.578125 0.078125 -1.171875q0 -0.15625 -0.03125 -0.421875q-0.03125 -0.265625 -0.03125 -0.421875q0.0625 -0.375 0.25 -0.78125q0.203125 -0.421875 0.265625 -0.796875q-0.140625 -0.6875 -0.03125 -0.984375q0.109375 -0.296875 -0.03125 -0.453125q0.140625 -0.15625 0.21875 -0.40625q0.078125 -0.265625 0.15625 -0.421875q0.078125 -0.234375 0.078125 -0.53125q0 -0.296875 0.140625 -0.671875q0.375 -0.609375 0.484375 -0.71875q0.125 -0.125 0.203125 -0.1875q0.078125 -0.53125 0.140625 -0.71875q0.078125 -0.1875 0.234375 -0.34375q0.375 -0.75 0.484375 -0.90625q0.125 -0.15625 0.1875 -0.296875q0.078125 -0.609375 0.15625 -0.6875q0.078125 -0.078125 0.15625 -0.21875q0.140625 -0.453125 0.171875 -0.796875q0.046875 -0.34375 0.203125 -0.71875q0.15625 -0.375 0.375 -0.78125q0.234375 -0.421875 0.609375 -0.734375q0.375 -0.90625 0.671875 -1.546875q0.3125 -0.640625 0.609375 -1.25q0.671875 -0.515625 1.15625 -1.1875q0.5 -0.6875 1.1875 -1.21875q0.140625 -0.15625 0.328125 -0.1875q0.203125 -0.046875 0.5 -0.1875q0.828125 -0.609375 1.203125 -0.9375q0.375 -0.34375 0.90625 -0.578125q0.453125 -0.15625 1.390625 -0.1875q0.953125 -0.03125 1.328125 -0.5625q0.453125 0 0.90625 -0.1875q0.453125 -0.1875 0.90625 -0.421875q0.3125 -0.15625 0.6875 -0.34375q0.375 -0.1875 1.046875 -0.109375q0.53125 0.078125 1.015625 0.046875q0.5 -0.046875 1.109375 -0.203125q0.296875 -0.0625 0.671875 -0.140625q0.375 -0.078125 0.828125 -0.078125q1.140625 0.15625 1.78125 0.15625q0.640625 0 1.46875 0.0625q0.375 0 0.796875 -0.109375q0.421875 -0.109375 0.875 -0.109375q0.375 0.078125 0.703125 0.078125q0.34375 0 0.71875 0.078125q0.53125 0.140625 0.640625 0.140625q0.125 0 0.203125 0q0.375 0.078125 0.640625 0.265625q0.265625 0.1875 0.640625 0.34375q0.140625 0.15625 0.40625 0.15625q0.265625 0 0.421875 0.140625q0.296875 0.078125 0.90625 0.375q0.53125 0.15625 0.984375 0.3125q0.453125 0.140625 0.59375 0.671875q0.84375 0.234375 1.25 0.609375q0.421875 0.375 0.796875 0.609375q0.296875 0.21875 0.59375 0.640625q0.3125 0.40625 0.6875 0.640625q0.078125 0.21875 0.1875 0.375q0.109375 0.140625 0.1875 0.453125q0.609375 0.375 1.0625 0.9375q0.453125 0.5625 1.28125 0.875q0.21875 0.53125 0.515625 0.90625q0.3125 0.375 0.390625 1.046875q0.15625 0.234375 0.34375 0.5q0.1875 0.265625 0.40625 0.640625q0.078125 0.15625 0.265625 0.390625q0.1875 0.21875 0.265625 0.4375q0.375 0.828125 0.828125 1.59375q0.15625 0.21875 0.421875 0.53125q0.265625 0.296875 0.40625 0.671875q0.078125 0.296875 0.078125 0.609375q0 0.296875 0.078125 0.59375q0.15625 0.375 0.21875 0.640625q0.078125 0.265625 0.15625 0.421875q0.15625 0.609375 0.078125 1.171875q-0.078125 0.5625 0 1.171875q0.078125 0.453125 0.109375 0.953125q0.046875 0.484375 0.125 0.9375q0 0.59375 0.0625 0.96875l0.234375 0.84375zm-10.796875 -6.046875q0.15625 -0.15625 0.03125 -0.53125q-0.109375 -0.375 -0.40625 -0.53125q-0.15625 -0.53125 -0.421875 -0.640625q-0.265625 -0.109375 -0.03125 -0.40625q-0.234375 -0.234375 -0.609375 -0.375q-0.375 -0.15625 -0.296875 -0.609375q-0.375 0.078125 -0.5 -0.1875q-0.109375 -0.265625 -0.265625 -0.34375q-0.515625 -0.375 -0.671875 -0.75q-0.15625 -0.390625 -0.453125 -0.609375q-0.234375 -0.15625 -0.5 -0.03125q-0.25 0.109375 -0.25 -0.34375q-1.21875 0.078125 -1.859375 -0.40625q-0.640625 -0.5 -1.25 -1.109375q-0.671875 0.15625 -1.5 0.078125q-0.828125 -0.078125 -1.59375 0q-0.59375 -0.375 -1.09375 -0.328125q-0.484375 0.03125 -1.171875 -0.203125q-0.296875 -0.078125 -0.34375 -0.34375q-0.03125 -0.265625 -0.40625 -0.265625q-0.53125 0.234375 -1.03125 0.015625q-0.484375 -0.234375 -1.078125 -0.3125q-0.609375 0.375 -1.296875 0.5q-0.671875 0.109375 -1.359375 0.328125q-0.375 0.15625 -0.828125 0.71875q-0.453125 0.5625 -0.671875 0.796875q-0.53125 0.609375 -1.0625 1.21875q-0.53125 0.59375 -0.984375 1.203125q0.078125 0.453125 -0.078125 0.71875q-0.140625 0.25 -0.0625 0.640625q-0.53125 0.375 -0.71875 1.171875q-0.1875 0.78125 -0.34375 1.546875q0.53125 0.0625 1.203125 0q0.6875 -0.078125 1.4375 -0.15625q0.234375 -0.078125 0.484375 -0.078125q0.265625 0 0.5 0q1.125 -0.21875 1.953125 -0.1875q0.84375 0.03125 1.515625 -0.03125q0.765625 0 1.46875 -0.109375q0.71875 -0.125 1.328125 0.171875q0.828125 -0.375 1.921875 -0.296875q1.09375 0.078125 1.78125 0.15625q0.609375 0 0.671875 -0.078125q0.078125 -0.078125 0.15625 0q2.1875 -0.15625 4.34375 0.109375q2.15625 0.265625 4.34375 -0.109375z" fill-rule="nonzero"/><path fill="#e51636" d="m263.88403 32.097565l0 0c0 -2.9571152 2.256195 -5.354332 5.0393677 -5.354332l0 0c1.3365173 0 2.6182861 0.5641155 3.5633545 1.5682487c0.94506836 1.0041313 1.4760132 2.366026 1.4760132 3.7860832l0 0c0 2.9571152 -2.256195 5.354332 -5.0393677 5.354332l0 0c-2.7831726 0 -5.0393677 -2.3972168 -5.0393677 -5.354332z" fill-rule="evenodd"/><path stroke="#e51636" stroke-width="1.0" stroke-linejoin="round" stroke-linecap="butt" d="m263.88403 32.097565l0 0c0 -2.9571152 2.256195 -5.354332 5.0393677 -5.354332l0 0c1.3365173 0 2.6182861 0.5641155 3.5633545 1.5682487c0.94506836 1.0041313 1.4760132 2.366026 1.4760132 3.7860832l0 0c0 2.9571152 -2.256195 5.354332 -5.0393677 5.354332l0 0c-2.7831726 0 -5.0393677 -2.3972168 -5.0393677 -5.354332z" fill-rule="evenodd"/><path fill="#e51636" d="m232.39308 32.097565l0 0c0 -2.9571152 2.2562103 -5.354332 5.0393677 -5.354332l0 0c1.3365326 0 2.6183167 0.5641155 3.563385 1.5682487c0.9450531 1.0041313 1.4759979 2.366026 1.4759979 3.7860832l0 0c0 2.9571152 -2.2562103 5.354332 -5.039383 5.354332l0 0c-2.7831573 0 -5.0393677 -2.3972168 -5.0393677 -5.354332z" fill-rule="evenodd"/><path stroke="#e51636" stroke-width="1.0" stroke-linejoin="round" stroke-linecap="butt" d="m232.39308 32.097565l0 0c0 -2.9571152 2.2562103 -5.354332 5.0393677 -5.354332l0 0c1.3365326 0 2.6183167 0.5641155 3.563385 1.5682487c0.9450531 1.0041313 1.4759979 2.366026 1.4759979 3.7860832l0 0c0 2.9571152 -2.2562103 5.354332 -5.039383 5.354332l0 0c-2.7831573 0 -5.0393677 -2.3972168 -5.0393677 -5.354332z" fill-rule="evenodd"/><path fill="#000000" fill-opacity="0.0" d="m280.51706 24.643045l16.913391 0l0 14.897638l-16.913391 0z" fill-rule="evenodd"/><path fill="#000000" fill-opacity="0.0" d="m174.72441 -160.43832l280.7874 0l0 42.015755l-280.7874 0z" fill-rule="evenodd"/></g></svg>